<?xml version="1.0" standalone="no"?>
<!DOCTYPE svg PUBLIC "-//W3C//DTD SVG 20010904//EN"
 "http://www.w3.org/TR/2001/REC-SVG-20010904/DTD/svg10.dtd">
<svg version="1.0" xmlns="http://www.w3.org/2000/svg"
 width="775.000000pt" height="775.000000pt" viewBox="0 0 775.000000 775.000000"
 preserveAspectRatio="xMidYMid meet">
<metadata>
Created by potrace 1.14, written by Peter Selinger 2001-2017
</metadata>
<g transform="translate(0.000000,775.000000) scale(0.100000,-0.100000)"
fill="#000000" stroke="none">
<path d="M3870 7321 c0 -6 -24 -9 -60 -6 -33 2 -62 -1 -66 -6 -4 -6 -11 -6
-19 1 -9 8 -15 8 -20 0 -3 -5 -11 -10 -16 -10 -6 0 -8 4 -5 9 7 10 -9 8 -36
-3 -9 -4 -44 -6 -77 -3 -39 3 -62 0 -65 -7 -3 -7 -5 -6 -5 2 -1 7 -5 11 -9 8
-7 -4 -107 -17 -137 -18 -5 0 -22 2 -38 5 -16 3 -25 2 -22 -4 4 -5 3 -9 -2
-10 -4 0 -19 -2 -33 -4 -14 -1 -31 2 -37 7 -9 7 -13 7 -13 -1 0 -7 -4 -10 -9
-6 -5 3 -12 1 -16 -4 -3 -6 -15 -7 -29 -1 -15 5 -27 5 -34 -2 -10 -10 -48 -16
-129 -21 -24 -1 -43 -5 -43 -9 0 -3 -8 -4 -19 -1 -10 3 -22 0 -25 -6 -4 -5
-13 -8 -21 -4 -8 3 -15 0 -15 -7 0 -9 -3 -10 -13 -1 -8 6 -17 7 -23 1 -5 -5
-28 -10 -52 -11 -24 -2 -47 -8 -52 -14 -6 -7 -33 -13 -62 -14 -30 -1 -59 -8
-69 -17 -10 -9 -31 -14 -52 -12 -23 1 -43 -4 -55 -15 -10 -9 -32 -17 -49 -17
-17 0 -36 -6 -42 -14 -7 -8 -24 -13 -39 -12 -15 1 -41 -3 -59 -10 -17 -7 -34
-9 -38 -6 -4 4 -12 0 -18 -8 -7 -9 -19 -15 -27 -15 -8 1 -29 -7 -47 -17 -18
-11 -42 -17 -57 -14 -14 3 -30 -2 -37 -10 -6 -8 -17 -14 -24 -14 -7 0 -18 -7
-25 -15 -7 -8 -21 -15 -31 -15 -11 0 -19 -4 -19 -8 0 -4 -12 -9 -27 -10 -15
-1 -29 -6 -32 -10 -3 -4 -26 -14 -50 -22 -25 -8 -56 -25 -69 -37 -14 -13 -27
-21 -30 -18 -2 2 -14 -1 -26 -7 -11 -7 -28 -13 -36 -14 -8 -2 -19 -9 -25 -16
-5 -8 -17 -12 -25 -11 -9 2 -25 -5 -37 -16 -11 -11 -24 -17 -29 -13 -4 4 -5 0
-2 -9 4 -9 1 -16 -8 -16 -7 0 -11 5 -8 11 3 6 -1 4 -8 -4 -27 -30 -80 -61 -94
-56 -8 3 -13 2 -11 -2 2 -4 -4 -15 -15 -24 -10 -10 -18 -15 -18 -11 0 3 -9 -2
-20 -12 -10 -9 -26 -15 -35 -11 -9 3 -14 2 -11 -3 3 -5 -1 -14 -9 -21 -8 -7
-15 -10 -15 -7 0 3 -12 -5 -26 -18 -15 -14 -32 -25 -38 -25 -7 0 -30 -18 -51
-40 -21 -22 -45 -40 -52 -40 -7 0 -33 -20 -58 -45 -24 -25 -48 -45 -52 -44
-20 3 -29 -3 -30 -22 -2 -18 -47 -64 -65 -64 -12 0 -47 -42 -41 -49 4 -3 2 -6
-4 -6 -5 0 -25 -13 -43 -30 -18 -16 -37 -30 -42 -30 -4 0 -8 -6 -8 -12 0 -7
-22 -36 -48 -64 -75 -81 -91 -102 -85 -108 3 -3 -1 -8 -10 -12 -9 -3 -13 -12
-10 -21 4 -11 2 -14 -5 -9 -7 4 -12 1 -12 -9 0 -8 -11 -21 -25 -27 -17 -7 -29
-24 -35 -49 -6 -21 -15 -41 -21 -45 -10 -6 -42 -70 -43 -86 -1 -4 -11 -15 -24
-24 -19 -13 -21 -18 -10 -32 8 -9 8 -13 2 -9 -10 6 -29 -20 -24 -32 1 -2 -4
-7 -11 -12 -7 -4 -14 -14 -15 -23 -1 -8 -11 -34 -22 -58 -27 -58 -35 -79 -36
-103 -1 -11 -5 -27 -11 -35 -11 -17 -16 -36 -18 -67 0 -13 -5 -23 -11 -23 -5
0 -7 -3 -3 -6 3 -4 0 -22 -8 -41 -18 -42 -18 -46 -5 -38 6 3 7 -1 4 -9 -3 -9
-11 -16 -16 -16 -7 0 -6 -5 1 -13 8 -10 7 -17 -1 -25 -11 -11 -17 -61 -18
-134 0 -16 -4 -28 -9 -28 -16 0 -8 -40 9 -40 12 -1 12 -3 -2 -11 -22 -12 -23
-42 -3 -59 14 -12 14 -15 -1 -31 -11 -12 -14 -25 -9 -36 5 -10 7 -22 6 -28 -8
-33 -7 -62 3 -74 8 -11 8 -13 -1 -7 -7 4 -13 2 -13 -3 0 -6 4 -11 10 -11 5 0
7 -6 4 -14 -3 -8 0 -24 6 -36 7 -13 8 -20 3 -17 -10 6 -9 -86 2 -175 4 -34 2
-48 -7 -48 -6 0 -3 -7 8 -15 10 -8 14 -15 9 -15 -14 0 -18 -50 -4 -50 6 0 9
-20 8 -49 -2 -29 3 -56 10 -65 11 -13 11 -16 1 -16 -9 0 -10 -3 -1 -13 8 -10
7 -17 -1 -25 -8 -8 -8 -15 0 -25 7 -8 10 -16 7 -18 -2 -3 0 -21 4 -42 6 -23 5
-37 -1 -37 -5 0 -6 -5 -3 -10 4 -6 12 -7 18 -4 8 5 8 3 0 -7 -15 -15 -17 -49
-4 -49 13 0 20 -49 7 -54 -7 -3 -7 -5 1 -5 7 -1 10 -8 6 -18 -4 -11 -3 -14 5
-9 14 9 15 5 3 -28 -7 -16 -7 -26 0 -28 5 -2 10 -14 11 -28 1 -14 6 -31 11
-37 6 -9 5 -13 -4 -13 -10 -1 -8 -4 3 -11 19 -10 25 -39 9 -39 -12 0 -2 -41
16 -61 7 -9 11 -23 7 -32 -3 -9 2 -31 11 -50 9 -19 15 -41 14 -49 -5 -21 21
-88 34 -88 7 0 4 -7 -6 -14 -16 -12 -16 -14 -2 -20 9 -3 15 -11 14 -18 -2 -7
3 -32 10 -56 6 -23 9 -47 6 -52 -3 -5 -1 -11 5 -15 6 -4 8 -11 5 -16 -4 -5 -2
-9 4 -9 8 0 27 -40 22 -48 -1 -1 9 -23 23 -50 13 -26 22 -55 21 -64 -2 -10 0
-18 5 -18 5 0 7 -8 6 -17 -2 -10 8 -32 20 -49 13 -17 21 -33 18 -37 -3 -3 3
-18 13 -33 13 -20 14 -26 4 -19 -8 5 -5 -6 8 -23 12 -18 19 -32 14 -32 -4 0 0
-6 9 -13 10 -8 14 -18 8 -26 -5 -9 0 -21 16 -35 13 -11 25 -30 27 -41 4 -30
68 -155 79 -155 6 0 8 -6 5 -14 -3 -7 6 -25 20 -40 13 -15 22 -34 19 -42 -3
-9 1 -14 12 -15 9 0 12 -3 5 -5 -7 -3 1 -18 22 -38 19 -19 36 -45 39 -59 2
-15 14 -36 25 -49 12 -12 21 -28 21 -35 0 -7 5 -13 10 -13 6 0 10 -5 10 -11 0
-15 26 -39 34 -32 3 4 6 -4 6 -16 0 -12 4 -20 8 -17 5 3 15 -7 23 -22 8 -15
24 -37 37 -50 12 -13 20 -27 17 -32 -3 -5 4 -11 15 -15 11 -3 19 -10 17 -14
-3 -11 101 -121 114 -121 5 0 9 -7 9 -16 0 -8 4 -13 9 -10 5 3 14 -8 20 -24 5
-17 14 -29 18 -28 5 2 39 -28 75 -66 43 -45 70 -66 79 -61 7 5 10 4 6 -2 -4
-6 2 -18 13 -28 11 -10 20 -15 20 -11 0 4 18 -11 40 -33 22 -22 50 -43 63 -46
12 -4 43 -28 70 -53 26 -26 47 -43 47 -38 0 7 19 -6 77 -54 7 -6 15 -9 17 -8
3 2 12 -6 21 -17 9 -11 13 -13 9 -5 -7 13 -6 13 11 0 11 -8 24 -18 30 -22 5
-4 24 -19 41 -33 18 -14 39 -25 48 -25 9 0 16 -4 16 -10 0 -5 14 -10 31 -10
20 0 28 -4 23 -12 -5 -8 -2 -9 12 -4 10 4 15 4 12 0 -4 -3 2 -15 13 -27 10
-11 19 -28 19 -37 0 -8 7 -25 15 -36 8 -12 12 -24 8 -27 -3 -4 0 -13 7 -22 7
-8 9 -15 5 -15 -5 0 -2 -8 6 -17 8 -10 21 -30 29 -45 7 -16 17 -28 22 -28 5 0
6 -5 3 -10 -3 -6 1 -13 9 -16 9 -3 13 -10 10 -15 -3 -5 0 -9 6 -9 6 0 8 -5 5
-10 -3 -6 1 -10 10 -10 9 0 14 -3 12 -7 -7 -12 12 -55 21 -49 5 3 14 -6 21
-20 6 -15 16 -22 23 -18 6 4 8 3 5 -3 -4 -6 2 -18 13 -28 11 -10 17 -22 13
-28 -3 -6 -1 -7 5 -3 7 4 12 2 12 -4 0 -6 6 -10 13 -8 6 1 33 -19 60 -45 26
-25 47 -44 47 -40 0 8 54 -28 63 -43 13 -23 64 -43 77 -30 8 8 10 7 5 -5 -4
-10 -1 -20 6 -25 8 -5 10 -3 4 7 -5 7 4 4 19 -9 16 -12 37 -22 47 -22 10 0 21
-5 25 -11 3 -6 15 -8 26 -6 16 5 17 3 6 -10 -12 -14 -11 -15 9 -5 14 8 23 8
25 1 2 -5 13 -11 26 -12 12 0 22 -6 22 -12 0 -7 6 -12 13 -13 6 -1 32 -5 57
-8 25 -4 50 -10 55 -14 10 -8 65 -22 98 -26 9 -1 20 -3 25 -4 4 -1 11 -2 15
-1 4 1 15 -6 24 -14 12 -13 18 -13 31 -3 9 7 13 8 9 2 -4 -7 8 -11 31 -12 69
-2 76 -3 84 -15 6 -9 8 -9 8 0 0 14 23 11 44 -6 12 -10 16 -11 16 -1 0 10 3
10 15 0 12 -10 15 -9 15 5 0 16 2 17 18 3 9 -8 32 -14 50 -14 17 1 32 -3 32
-9 0 -5 5 -3 10 5 6 9 10 10 10 3 0 -8 9 -9 28 -4 15 5 49 5 76 1 26 -4 63 -6
82 -4 19 1 34 -2 34 -7 0 -6 7 -6 18 -1 15 8 133 9 157 1 6 -2 20 2 32 9 12 7
24 8 27 3 4 -5 36 -7 72 -5 49 3 63 1 58 -9 -5 -8 -2 -7 9 2 9 7 27 11 39 8
13 -3 32 1 42 9 15 10 22 11 27 2 6 -9 11 -9 23 1 12 11 16 11 16 1 0 -10 3
-10 15 0 8 7 24 10 35 7 11 -3 48 1 82 8 45 9 65 10 70 2 4 -8 11 -7 20 1 8 6
32 12 53 13 22 2 54 9 71 16 17 6 34 9 37 6 4 -3 13 -1 21 6 8 6 29 13 47 15
34 4 57 10 94 27 11 5 30 10 42 12 11 2 28 9 37 16 9 7 16 10 16 6 0 -4 6 -2
14 4 7 6 21 9 30 5 9 -3 16 -1 16 5 0 6 7 11 15 11 8 0 15 4 15 10 0 5 7 7 15
4 8 -4 17 1 21 9 5 15 58 34 77 29 5 -2 6 2 2 8 -3 5 1 10 9 10 9 0 16 5 16
11 0 5 5 7 10 4 6 -3 10 -1 10 5 0 6 4 9 9 6 5 -3 11 1 15 9 3 8 12 15 21 15
9 0 31 15 50 33 46 43 57 52 78 60 11 4 15 12 11 18 -5 8 -3 9 5 5 8 -5 14 0
18 13 3 12 9 21 12 21 10 0 111 127 111 138 0 5 7 15 15 22 8 7 12 17 8 23 -4
6 0 8 11 4 14 -6 16 -3 11 14 -4 13 -3 19 2 16 11 -7 57 88 58 118 0 11 5 27
10 35 5 8 10 17 11 20 11 37 19 49 37 58 46 20 82 35 94 38 7 1 29 16 50 33
21 17 43 31 50 31 7 0 13 5 13 11 0 5 5 7 11 4 12 -8 65 45 61 60 -2 6 2 5 9
-2 9 -9 15 -9 25 0 30 27 43 37 49 37 4 0 32 21 63 48 31 26 52 41 48 34 -7
-11 -4 -12 13 -3 11 7 21 14 21 17 0 3 -4 2 -10 -1 -5 -3 -10 -1 -10 4 0 6 6
11 13 11 7 0 39 25 71 55 31 31 61 53 65 51 5 -3 13 6 20 20 6 14 16 22 21 19
6 -3 10 2 10 11 0 10 3 14 6 11 4 -4 20 10 36 31 16 20 37 41 45 46 27 15 49
42 45 54 -2 7 3 12 12 12 9 0 16 3 16 8 0 4 26 35 58 69 33 35 54 64 49 66 -6
2 17 32 51 67 34 35 62 68 62 75 0 6 13 26 30 45 16 18 27 36 25 40 -3 5 2 11
10 14 8 3 14 9 14 13 -3 13 13 43 20 39 4 -3 22 28 41 67 18 40 39 79 46 87 7
8 14 22 16 30 2 8 12 23 22 33 12 11 14 17 6 17 -8 0 -4 8 8 19 12 10 22 26
22 35 0 9 4 16 8 16 9 0 62 127 62 148 0 6 4 12 8 12 4 0 16 24 27 53 10 28
23 58 29 66 5 7 12 24 14 38 1 14 10 35 18 48 8 12 14 27 13 31 -1 5 0 12 1
17 1 4 3 15 4 25 1 9 12 36 24 58 11 23 18 44 15 48 -4 3 -1 6 7 6 10 0 10 4
-1 17 -8 9 -9 14 -3 10 13 -7 24 13 24 44 0 10 5 19 10 19 6 0 10 12 9 28 -1
33 3 51 18 76 6 10 8 27 6 36 -3 9 5 38 17 63 14 29 20 56 16 71 -3 14 -1 26
4 28 6 2 12 13 13 26 0 12 5 22 9 22 5 0 4 9 -2 19 -7 14 -6 23 3 33 8 8 11
22 7 33 -9 25 -1 62 16 76 17 14 19 33 2 23 -7 -5 -8 -3 -2 7 9 15 14 49 15
117 1 29 4 40 12 35 7 -3 9 -3 5 2 -4 4 -3 17 3 28 9 15 8 18 -2 12 -8 -6 -10
-4 -3 6 4 8 9 25 9 39 0 14 4 31 9 38 4 7 3 19 -3 26 -6 7 -8 16 -4 20 9 9 13
30 17 96 2 30 5 55 7 55 1 0 3 23 5 50 2 28 5 70 7 95 3 25 1 55 -4 66 -4 12
-5 25 -1 28 13 14 15 41 8 109 -2 26 -1 47 3 47 4 0 8 7 8 15 0 8 -4 15 -9 15
-9 0 -6 68 4 85 3 6 4 19 1 30 -12 60 -14 85 -4 85 10 0 9 38 -2 56 -3 6 -7
34 -9 62 -2 29 -6 52 -9 52 -10 0 -5 34 6 42 6 5 5 8 -2 8 -7 0 -13 11 -13 25
0 14 -6 25 -12 25 -9 0 -8 4 2 10 10 7 12 12 4 18 -6 4 -17 18 -24 31 -11 22
-11 23 6 17 16 -5 17 -4 4 6 -8 7 -17 27 -19 43 -1 17 -6 35 -9 40 -4 6 -7 15
-9 20 -1 6 -4 21 -7 34 -3 13 -13 29 -21 35 -9 6 -15 16 -14 21 2 6 -3 21 -10
33 -7 13 -14 37 -15 53 -1 15 -6 32 -11 36 -4 4 -5 1 -1 -7 4 -8 0 -6 -8 4
-13 16 -13 22 -3 28 9 6 9 8 -1 8 -7 0 -11 4 -7 10 3 5 -6 17 -20 26 -14 9
-25 21 -25 26 0 5 -9 21 -20 35 -11 14 -20 35 -20 46 0 11 -9 28 -21 38 -11
10 -18 23 -14 28 3 6 0 11 -7 11 -7 0 -21 18 -30 40 -10 24 -23 40 -33 40 -9
0 -13 5 -10 10 3 6 2 10 -2 10 -5 0 -15 16 -22 36 -7 19 -18 33 -23 32 -14 -5
-60 40 -63 61 -1 9 -12 21 -24 27 -12 6 -25 15 -29 19 -4 5 -1 5 6 1 25 -15
11 6 -29 42 -23 20 -78 72 -123 115 -116 112 -114 110 -138 112 -13 1 -23 8
-23 16 0 7 -10 18 -23 25 -12 6 -46 32 -75 57 -75 67 -77 69 -77 59 0 -5 -6
-9 -14 -9 -8 0 -12 6 -8 15 3 9 1 13 -5 9 -6 -4 -13 -1 -16 7 -3 7 -18 16 -34
19 -15 3 -41 19 -58 34 -16 15 -33 27 -37 25 -5 -1 -8 3 -8 9 0 6 -6 9 -14 6
-8 -3 -22 3 -32 14 -9 10 -19 17 -22 14 -3 -2 -23 9 -45 25 -23 17 -47 30 -54
30 -7 0 -13 5 -13 12 0 6 -3 8 -6 5 -8 -8 -64 24 -64 35 0 4 -11 8 -25 8 -14
0 -25 4 -25 9 0 5 -7 12 -16 15 -10 4 -13 2 -9 -7 4 -6 1 -5 -7 3 -20 23 -53
47 -44 33 12 -20 15 -21 -124 45 -25 12 -51 22 -57 22 -7 0 -13 5 -13 11 0 6
-7 9 -15 5 -8 -3 -15 -1 -15 3 0 5 -9 7 -20 4 -11 -3 -20 -1 -20 4 0 5 -10 9
-22 10 -11 1 -25 7 -29 14 -4 7 -14 9 -23 6 -8 -3 -18 -2 -21 4 -4 5 -11 6
-17 3 -6 -4 -17 1 -23 10 -8 10 -30 18 -55 20 -23 2 -45 8 -49 15 -4 6 -21 14
-37 17 -16 2 -36 7 -44 11 -8 3 -31 7 -50 8 -19 1 -42 4 -50 7 -40 17 -96 32
-107 30 -7 -2 -13 1 -13 6 0 11 -9 12 -80 15 -30 1 -61 8 -69 15 -8 8 -25 12
-38 9 -28 -5 -113 11 -130 25 -9 7 -18 7 -27 -1 -11 -10 -20 -10 -38 0 -12 7
-37 13 -55 14 -18 0 -35 4 -39 7 -3 4 -11 4 -18 2 -7 -3 -25 0 -40 6 -18 6
-25 7 -21 0 4 -6 -10 -3 -30 7 -22 11 -39 14 -43 8 -9 -12 -32 -18 -32 -7 0 4
-41 8 -92 9 -61 2 -94 7 -100 15 -7 12 -12 4 -9 -15 1 -5 -8 -2 -20 7 -17 11
-25 12 -40 3 -15 -9 -25 -8 -50 7 -26 15 -33 16 -40 5 -5 -8 -9 -10 -9 -6 0 4
-9 3 -20 -3 -15 -8 -20 -8 -20 1 0 9 -3 9 -14 0 -10 -9 -16 -9 -21 -1 -4 6
-15 8 -25 5 -11 -3 -28 -1 -40 5 -13 7 -20 7 -20 1z m-3220 -1385 c0 -3 -4 -8
-10 -11 -5 -3 -10 -1 -10 4 0 6 5 11 10 11 6 0 10 -2 10 -4z"/>
</g>
</svg>
